<svg width="260" height="260" viewBox="0 0 260 260" fill="none" xmlns="http://www.w3.org/2000/svg">
<path d="M130 0C129.918 0 129.918 0 129.836 0H129.755C129.591 0 129.346 0 129.182 0C57.7233 0.490566 0 58.4591 0 130C0 201.786 58.2138 260 130 260C201.786 260 260 201.786 260 130C260 58.2138 201.786 0 130 0ZM8.74843 134.088H41.6981C42.1887 157.962 47.0943 180.365 55.1887 199.415H30.4969C17.4969 180.774 9.56604 158.289 8.74843 134.088ZM177.994 125.421C177.503 120.434 176.277 115.528 174.314 110.95C172.27 106.126 169.491 101.711 165.975 97.7862C165.075 84.3774 163.604 71.8679 161.641 60.5031H194.673C203.176 78.9811 208.409 101.302 208.981 125.421H177.994ZM129.673 8.66667C129.755 8.66667 129.755 8.66667 129.836 8.66667C132.044 8.66667 135.233 10.4654 138.912 16.5157C142.509 22.3208 145.943 31.0692 148.887 42.2704C149.704 45.2956 150.44 48.4843 151.176 51.8365H108.415C109.151 48.4843 109.887 45.2956 110.704 42.2704C113.648 31.0692 117.082 22.4025 120.679 16.5157C124.277 10.5472 127.465 8.74843 129.673 8.66667ZM152.811 60.4214C154.365 69.3333 155.673 79.0629 156.654 89.4465C154.119 87.7296 151.503 86.2579 148.641 85.0314C142.673 82.4968 136.296 81.1887 129.755 81.1887C123.132 81.1887 116.836 82.4968 110.868 85.0314C108.006 86.2579 105.39 87.6478 102.855 89.3648C103.755 78.9811 105.063 69.2516 106.698 60.3396H152.811V60.4214ZM168.755 125.176H113.648C115.61 117.409 122.723 111.686 131.063 111.686H164.748C166.956 115.855 168.264 120.434 168.755 125.176ZM101.874 101.956C109.314 94.5157 119.208 90.4277 129.673 90.4277C140.138 90.4277 150.031 94.5157 157.472 101.956C157.717 102.201 157.88 102.365 158.126 102.61H130.981C123.704 102.61 116.918 105.39 111.767 110.541C107.679 114.629 105.063 119.698 104.245 125.176H90.5094C91.6541 116.428 95.5786 108.252 101.874 101.956ZM160.006 51.7547C159.189 47.6667 158.289 43.7421 157.308 39.9811C154.283 28.4528 150.604 18.7233 146.27 11.8553C146.107 11.6101 145.943 11.3648 145.78 11.1195C160.742 15.8616 174.396 27.1447 185.27 43.4151C186.987 46.0314 188.704 48.8113 190.258 51.673H160.006V51.7547ZM113.157 11.9371C108.906 18.805 105.226 28.4528 102.119 40.0629C101.138 43.7421 100.239 47.6667 99.4214 51.8365H69.1698C70.7233 48.9748 72.4402 46.195 74.1572 43.5786C85.0314 27.3082 98.6855 16.0252 113.648 11.283C113.484 11.4465 113.321 11.6918 113.157 11.9371ZM97.8679 60.4214C95.9057 71.7044 94.434 84.2138 93.5346 97.6226C90.0189 101.629 87.239 106.044 85.1132 110.868C83.1509 115.447 81.9245 120.352 81.5157 125.34H50.4465C51.0189 101.138 56.2516 78.8994 64.7547 60.4214H97.8679ZM41.6981 125.421H8.74843C9.6478 101.302 17.5786 78.9811 30.5786 60.5031H55.2704C47.1761 79.3899 42.2704 101.629 41.6981 125.421ZM50.4465 134.088H81.5157C81.9245 139.075 83.1509 143.981 85.1132 148.641C87.1572 153.465 90.0189 157.962 93.5346 161.887C94.434 175.377 95.9057 187.969 97.8679 199.333H64.7547C56.1698 180.774 50.9371 158.371 50.4465 134.088ZM129.755 251.088C127.547 251.088 124.358 249.371 120.597 243.239C117 237.434 113.566 228.686 110.623 217.484C109.805 214.459 109.069 211.27 108.333 207.918H151.094C150.358 211.27 149.623 214.459 148.805 217.484C145.862 228.686 142.428 237.352 138.83 243.239C135.151 249.371 131.88 251.088 129.755 251.088ZM106.616 199.333C105.063 190.34 103.755 180.528 102.774 170.063C105.308 171.78 108.006 173.17 110.786 174.314C116.755 176.849 123.132 178.157 129.673 178.157C136.214 178.157 142.509 176.849 148.56 174.314C151.421 173.088 154.119 171.616 156.654 169.981C155.673 180.528 154.447 190.34 152.811 199.333H106.616ZM157.553 157.635C150.113 165.075 140.22 169.163 129.755 169.163C119.289 169.163 109.396 165.075 101.956 157.635C95.5786 151.258 91.7358 143.082 90.673 134.333H104.409C105.308 139.811 107.925 144.88 111.931 148.969C117.082 154.119 123.868 156.899 131.145 156.899H158.289C157.962 157.226 157.799 157.39 157.553 157.635ZM164.748 147.824H131.063C122.723 147.824 115.692 142.101 113.648 134.333H168.755C168.264 139.075 166.874 143.654 164.748 147.824ZM99.5031 208.082C100.321 212.17 101.22 216.094 102.201 219.855C105.226 231.384 108.906 241.113 113.239 247.981C113.403 248.226 113.566 248.472 113.73 248.717C98.7673 243.975 85.1132 232.692 74.239 216.421C72.522 213.805 70.805 211.025 69.2516 208.164H99.5031V208.082ZM146.27 247.899C150.522 241.031 154.201 231.384 157.308 219.774C158.289 216.094 159.189 212.17 160.006 208H190.34C188.786 210.862 187.069 213.642 185.352 216.258C174.478 232.528 160.824 243.811 145.862 248.553C145.943 248.39 146.107 248.145 146.27 247.899ZM161.641 199.333C163.604 187.887 165.075 175.296 166.057 161.805C169.572 157.88 172.352 153.384 174.396 148.56C176.358 143.899 177.585 139.075 177.994 134.088H209.063C208.491 158.371 203.258 180.855 194.755 199.415H161.641V199.333ZM217.73 134.088H251.252C250.434 158.289 242.585 180.774 229.585 199.415H204.239C212.333 180.365 217.239 157.962 217.73 134.088ZM217.73 125.421C217.157 101.629 212.333 79.3899 204.239 60.5031H229.421C242.421 79.0629 250.352 101.302 251.252 125.421H217.73ZM222.717 51.7547H200.151C197.78 47.1761 195.245 42.8428 192.547 38.673C186.742 30.0063 180.119 22.4843 172.761 16.3522C192.302 23.7925 209.472 36.0566 222.717 51.7547ZM86.2579 16.8428C79.0629 22.8113 72.6038 30.2516 66.9623 38.673C64.2642 42.761 61.7296 47.0943 59.3585 51.7547H37.283C50.283 36.3019 67.1258 24.2013 86.2579 16.8428ZM37.1195 208.082H59.3585C61.7296 212.66 64.2642 216.994 66.9623 221.164C72.7673 229.83 79.3899 237.352 86.7484 243.484C67.2893 235.962 50.283 223.698 37.1195 208.082ZM172.27 243.73C179.792 237.597 186.66 229.912 192.547 221.082C195.245 216.994 197.78 212.66 200.151 208H222.88C209.472 223.943 192.138 236.371 172.27 243.73Z" fill="black"/>
</svg>
