<svg width="26" height="37" viewBox="0 0 26 37" fill="none" xmlns="http://www.w3.org/2000/svg">
<g id="mobile">
<path id="Subtract" fill-rule="evenodd" clip-rule="evenodd" d="M5.89193 0.558594C2.94641 0.558594 0.558594 2.94641 0.558594 5.89193L0.558594 30.7808C0.558594 33.7263 2.94641 36.1141 5.89193 36.1141H20.1141C23.0597 36.1141 25.4475 33.7263 25.4475 30.7808L25.4475 5.89193C25.4475 2.94641 23.0597 0.558594 20.1141 0.558594L5.89193 0.558594ZM11.2253 29.4475C10.4889 29.4475 9.89192 30.0444 9.89192 30.7808C9.89192 31.5172 10.4889 32.1141 11.2253 32.1141H14.7808C15.5172 32.1141 16.1141 31.5172 16.1141 30.7808C16.1141 30.0444 15.5172 29.4475 14.7808 29.4475L11.2253 29.4475Z" fill="black"/>
</g>
</svg>
