<svg width="44" height="43" viewBox="0 0 44 43" fill="none" xmlns="http://www.w3.org/2000/svg">
<g id="orb">
<path id="Union" fill-rule="evenodd" clip-rule="evenodd" d="M39.786 21.3364C39.786 31.1548 31.8266 39.1141 22.0082 39.1141C12.1898 39.1141 4.23047 31.1548 4.23047 21.3364C4.23047 11.518 12.1898 3.55859 22.0082 3.55859C31.8266 3.55859 39.786 11.518 39.786 21.3364ZM30.9041 18.3711C30.9041 23.2803 26.9244 27.26 22.0152 27.26C17.106 27.26 13.1263 23.2803 13.1263 18.3711C13.1263 13.4619 17.106 9.4822 22.0152 9.4822C26.9244 9.4822 30.9041 13.4619 30.9041 18.3711ZM22.4912 19.8517C24.1276 19.8517 25.4541 18.5251 25.4541 16.8887C25.4541 15.2523 24.1276 13.9258 22.4912 13.9258C20.8548 13.9258 19.5282 15.2523 19.5282 16.8887C19.5282 18.5251 20.8548 19.8517 22.4912 19.8517Z" fill="black"/>
</g>
</svg>
