<svg width="50" height="44" viewBox="0 0 50 44" fill="none" xmlns="http://www.w3.org/2000/svg">
<g id="World ID Orb+">
<g id="Vector">
<path d="M18.9334 22.5522C20.5698 22.5522 21.8964 21.2257 21.8964 19.5893C21.8964 17.9529 20.5698 16.6263 18.9334 16.6263C17.297 16.6263 15.9705 17.9529 15.9705 19.5893C15.9705 21.2257 17.297 22.5522 18.9334 22.5522Z" fill="black"/>
<path fill-rule="evenodd" clip-rule="evenodd" d="M36.2235 24.033C36.2235 33.8514 28.2641 41.8108 18.4457 41.8108C8.62735 41.8108 0.667969 33.8514 0.667969 24.033C0.667969 14.2146 8.62735 6.25521 18.4457 6.25521C28.2641 6.25521 36.2235 14.2146 36.2235 24.033ZM27.3398 21.0707C27.3398 25.9799 23.3601 29.9596 18.451 29.9596C13.5418 29.9596 9.56206 25.9799 9.56206 21.0707C9.56206 16.1615 13.5418 12.1819 18.451 12.1819C23.3601 12.1819 27.3398 16.1615 27.3398 21.0707Z" fill="black"/>
<path fill-rule="evenodd" clip-rule="evenodd" d="M38.4128 1.36667C38.4128 0.611877 39.0246 0 39.7794 0C40.5342 0 41.1461 0.611877 41.1461 1.36667V5.33333H45.1128C45.8675 5.33333 46.4794 5.94521 46.4794 6.7C46.4794 7.45479 45.8675 8.06667 45.1128 8.06667H41.1461V12.0333C41.1461 12.7881 40.5342 13.4 39.7794 13.4C39.0246 13.4 38.4128 12.7881 38.4128 12.0333V8.06667H34.4461C33.6913 8.06667 33.0794 7.45479 33.0794 6.7C33.0794 5.94521 33.6913 5.33333 34.4461 5.33333H38.4128V1.36667Z" fill="black"/>
</g>
</g>
</svg>
