<svg width="816" height="462" viewBox="0 0 816 462" fill="none" xmlns="http://www.w3.org/2000/svg">
<path d="M816 297H442V298H816V297Z" fill="#CCCCCC"/>
<path d="M816 268H442V269H816V268Z" fill="#CCCCCC"/>
<path d="M816 239H442V240H816V239Z" fill="#CCCCCC"/>
<path d="M816 209H442V210H816V209Z" fill="#CCCCCC"/>
<path d="M816 181H442V182H816V181Z" fill="#CCCCCC"/>
<path d="M816 152H442V153H816V152Z" fill="#CCCCCC"/>
<path d="M816 94H442V95H816V94Z" fill="#CCCCCC"/>
<path d="M816 123H442V124H816V123Z" fill="#CCCCCC"/>
<path d="M816 354H442V355H816V354Z" fill="#CCCCCC"/>
<path d="M816 326H442V327H816V326Z" fill="#CCCCCC"/>
<path d="M455.684 297H361.387V311.406H455.684V297Z" fill="black"/>
<path d="M455.684 268H361.387V282.406H455.684V268Z" fill="black"/>
<path d="M455.684 239H361.387V253.406H455.684V239Z" fill="black"/>
<path d="M455.684 209.334H361.387V223.741H455.684V209.334Z" fill="black"/>
<path d="M455.684 181.032H309V195.438H455.684V181.032Z" fill="black"/>
<path d="M455.684 354H361.387V368.406H455.684V354Z" fill="black"/>
<path d="M455.684 326H361.387V340.406H455.684V326Z" fill="black"/>
<path d="M455.684 152.094H309V166.5H455.684V152.094Z" fill="black"/>
<path d="M455.683 123.157H341.086V137.563H455.683V123.157Z" fill="black"/>
<path d="M455.684 94.2192H361.387V108.626H455.684V94.2192Z" fill="black"/>
</svg>
